<svg width="14" height="11" viewBox="0 0 14 11" fill="none" xmlns="http://www.w3.org/2000/svg">
<path d="M11.025 4.845C10.755 5.115 10.605 5.6325 10.695 6L11.2125 8.2575C11.43 9.195 11.295 9.9 10.83 10.2375C10.6425 10.3725 10.4175 10.44 10.155 10.44C9.77248 10.44 9.32248 10.2975 8.82748 10.005L6.62998 8.7C6.28498 8.4975 5.71498 8.4975 5.36998 8.7L3.17248 10.005C2.33998 10.4925 1.62748 10.575 1.16998 10.2375C0.997475 10.11 0.869976 9.9375 0.787476 9.7125L9.90747 0.592499C10.2525 0.247499 10.74 0.0899991 11.2125 0.172499L11.97 0.299999C12.765 0.434999 13.2975 0.795 13.47 1.32C13.635 1.845 13.41 2.4525 12.84 3.0225L11.025 4.845Z" fill="#F3AC4A"/>
</svg>
